<svg width="117" height="37" viewBox="0 0 117 37" fill="none" xmlns="http://www.w3.org/2000/svg">
<rect width="117" height="37" rx="10" fill="#020000"/>
<path d="M51.7997 24.632C51.8917 24.6473 51.9377 24.6933 51.9377 24.77C51.9377 24.8313 51.8917 24.908 51.7997 25C51.723 25.1073 51.6387 25.2223 51.5467 25.345C51.24 25.7743 50.8874 26.0733 50.4887 26.242C50.09 26.426 49.722 26.518 49.3847 26.518C49.0627 26.518 48.7944 26.4567 48.5797 26.334C48.4264 26.2267 48.2424 26.058 48.0277 25.828C47.8284 25.6133 47.652 25.3297 47.4987 24.977C47.3607 24.6243 47.307 24.2103 47.3377 23.735C47.3684 23.229 47.4374 22.6463 47.5447 21.987C47.652 21.3123 47.7747 20.63 47.9127 19.94C48.0507 19.25 48.1734 18.6137 48.2807 18.031C48.4034 17.433 48.4877 16.9653 48.5337 16.628C48.595 16.1527 48.4724 15.915 48.1657 15.915C47.9357 15.915 47.6597 16.0607 47.3377 16.352C47.0924 16.6893 46.7704 17.1187 46.3717 17.64C45.9884 18.1613 45.5974 18.9433 45.1987 19.986C45.03 20.446 44.8384 20.9597 44.6237 21.527C44.409 22.079 44.2634 22.7383 44.1867 23.505C44.1714 23.6123 44.1714 23.7273 44.1867 23.85C44.2174 23.9727 44.2327 24.0953 44.2327 24.218C44.2327 24.3713 44.1944 24.5093 44.1177 24.632C43.9797 24.8313 43.8187 24.9693 43.6347 25.046C43.5734 25.0613 43.512 25.0767 43.4507 25.092C43.4047 25.1073 43.3587 25.115 43.3127 25.115C43.236 25.115 43.167 25.0767 43.1057 25C42.9984 24.8773 42.9447 24.6857 42.9447 24.425C42.9447 24.1643 42.9754 23.896 43.0367 23.62C43.1134 23.3287 43.167 23.0603 43.1977 22.815C43.2744 22.2477 43.351 21.6497 43.4277 21.021C43.5197 20.377 43.5657 19.6793 43.5657 18.928C43.5657 18.422 43.535 17.893 43.4737 17.341C43.4277 16.7737 43.3434 16.1603 43.2207 15.501C43.1594 15.1943 43.1057 14.9107 43.0597 14.65C43.0137 14.3893 42.8604 14.1747 42.5997 14.006C42.4157 13.8833 42.247 13.983 42.0937 14.305C41.9404 14.627 41.8024 15.1023 41.6797 15.731C41.5724 16.3597 41.465 17.088 41.3577 17.916C41.2504 18.7287 41.1507 19.572 41.0587 20.446C40.9054 21.7493 40.775 22.93 40.6677 23.988C40.5757 25.046 40.5067 25.8127 40.4607 26.288C40.4454 26.5027 40.2997 26.679 40.0237 26.817C39.763 26.9703 39.487 27.0777 39.1957 27.139C38.9197 27.2157 38.728 27.254 38.6207 27.254C38.498 27.254 38.4367 27.162 38.4367 26.978C38.4367 26.8093 38.4674 26.6177 38.5287 26.403C38.6054 26.2037 38.659 26.0427 38.6897 25.92C39.0117 24.9847 39.234 24.0953 39.3567 23.252C39.4947 22.3933 39.5637 21.573 39.5637 20.791C39.5637 19.9783 39.51 19.204 39.4027 18.468C39.2954 17.732 39.165 17.0343 39.0117 16.375C38.843 15.6237 38.5057 14.8953 37.9997 14.19C37.4937 13.4693 36.865 12.879 36.1137 12.419C35.3624 11.9437 34.5267 11.706 33.6067 11.706C33.024 11.706 32.4567 11.8057 31.9047 12.005C31.3527 12.189 30.8007 12.5033 30.2487 12.948C29.6967 13.3927 29.2367 13.9677 28.8687 14.673C28.5007 15.3783 28.3167 16.214 28.3167 17.18C28.3167 18.0693 28.5084 19.043 28.8917 20.101C29.0757 20.5763 29.39 21.0057 29.8347 21.389C30.2794 21.7723 30.7624 22.079 31.2837 22.309C31.805 22.539 32.265 22.654 32.6637 22.654C32.8477 22.654 32.9934 22.631 33.1007 22.585C33.7294 22.355 34.1894 21.987 34.4807 21.481C34.772 20.975 34.9177 20.4613 34.9177 19.94C34.9177 19.48 34.8104 19.0507 34.5957 18.652C34.3964 18.238 34.0974 17.9313 33.6987 17.732C33.4994 17.64 33.3997 17.5097 33.3997 17.341C33.3997 17.1417 33.553 17.042 33.8597 17.042C34.0744 17.042 34.312 17.1033 34.5727 17.226C34.8794 17.3487 35.1707 17.594 35.4467 17.962C35.7227 18.33 35.922 18.744 36.0447 19.204C36.0754 19.3113 36.0984 19.4263 36.1137 19.549C36.129 19.6717 36.1367 19.7943 36.1367 19.917C36.1367 20.4383 36.014 20.9443 35.7687 21.435C35.5387 21.9257 35.255 22.355 34.9177 22.723C34.5957 23.0757 34.289 23.3057 33.9977 23.413C33.691 23.5203 33.346 23.574 32.9627 23.574C32.3647 23.574 31.7514 23.4437 31.1227 23.183C30.494 22.907 29.919 22.5237 29.3977 22.033C28.8917 21.527 28.516 20.9443 28.2707 20.285C28.056 19.6717 27.9027 19.0967 27.8107 18.56C27.7034 18.0233 27.6497 17.525 27.6497 17.065C27.6497 15.9763 27.8644 15.0563 28.2937 14.305C28.723 13.5537 29.252 12.948 29.8807 12.488C30.5094 12.0127 31.1227 11.6677 31.7207 11.453C32.104 11.315 32.4644 11.2153 32.8017 11.154C33.1544 11.0927 33.4917 11.062 33.8137 11.062C34.565 11.062 35.2474 11.2153 35.8607 11.522C36.474 11.8133 37.0184 12.1967 37.4937 12.672C37.969 13.1473 38.383 13.6687 38.7357 14.236C39.0884 14.788 39.3874 15.34 39.6327 15.892C39.878 16.4287 40.0774 16.8963 40.2307 17.295C40.292 17.5403 40.3534 17.7473 40.4147 17.916C40.476 18.0847 40.5374 18.169 40.5987 18.169C40.6907 18.169 40.7444 17.9313 40.7597 17.456C40.775 16.858 40.8824 16.237 41.0817 15.593C41.2964 14.949 41.4957 14.3433 41.6797 13.776C41.8024 13.5153 41.948 13.3237 42.1167 13.201C42.3007 13.0783 42.4847 13.017 42.6687 13.017C42.914 13.017 43.1134 13.109 43.2667 13.293C43.7727 13.8297 44.087 14.3203 44.2097 14.765C44.3477 15.2097 44.4244 15.7463 44.4397 16.375C44.455 16.8657 44.4857 17.3027 44.5317 17.686C44.593 18.054 44.6697 18.3223 44.7617 18.491C45.099 18.0003 45.4287 17.5173 45.7507 17.042C46.088 16.5667 46.41 16.1603 46.7167 15.823C47.0234 15.4703 47.284 15.2557 47.4987 15.179C47.6827 15.1177 47.859 15.087 48.0277 15.087C48.3344 15.087 48.5797 15.1637 48.7637 15.317C48.9477 15.4703 49.0857 15.6313 49.1777 15.8C49.285 15.9687 49.3464 16.0683 49.3617 16.099C49.469 16.375 49.5227 16.697 49.5227 17.065C49.5227 17.5557 49.4384 18.0693 49.2697 18.606C49.1164 19.1427 48.94 19.6793 48.7407 20.216C48.5414 20.7527 48.3574 21.2663 48.1887 21.757C48.0354 22.2323 47.9587 22.6617 47.9587 23.045C47.9587 23.8117 47.9894 24.402 48.0507 24.816C48.1274 25.2147 48.227 25.483 48.3497 25.621C48.4877 25.7743 48.6487 25.851 48.8327 25.851C49.032 25.851 49.2467 25.805 49.4767 25.713C49.722 25.6363 49.9904 25.5903 50.2817 25.575C50.527 25.5597 50.7417 25.4677 50.9257 25.299C51.1097 25.1457 51.2707 24.9923 51.4087 24.839C51.562 24.6857 51.6924 24.6167 51.7997 24.632ZM58.0097 18.192C58.1017 18.33 58.1477 18.4833 58.1477 18.652C58.1477 18.9893 58.0327 19.4187 57.8027 19.94C57.588 20.446 57.3657 21.0057 57.1357 21.619C56.9057 22.2323 56.783 22.861 56.7677 23.505C56.7524 24.333 56.737 25.184 56.7217 26.058C56.7217 26.932 56.622 27.783 56.4227 28.611C56.2387 29.4543 55.8477 30.221 55.2497 30.911C54.759 31.4783 54.2377 31.8617 53.6857 32.061C53.149 32.2757 52.5817 32.383 51.9837 32.383C51.8764 32.383 51.7614 32.3753 51.6387 32.36C51.516 32.36 51.3934 32.3523 51.2707 32.337C50.9794 32.3063 50.665 32.1683 50.3277 31.923C49.9904 31.6777 49.699 31.325 49.4537 30.865C49.2084 30.405 49.0857 29.8453 49.0857 29.186C49.0857 28.956 49.1087 28.703 49.1547 28.427C49.2314 27.967 49.3464 27.4993 49.4997 27.024C49.653 26.564 49.8754 26.1807 50.1667 25.874C50.458 25.5673 50.849 25.414 51.3397 25.414C51.7384 25.414 52.114 25.5597 52.4667 25.851C52.8194 26.1577 53.1107 26.5027 53.3407 26.886C53.586 27.2693 53.747 27.6067 53.8237 27.898C53.8697 28.082 53.908 28.2737 53.9387 28.473C53.9847 28.6877 54.0077 28.8947 54.0077 29.094C54.0077 29.4467 53.9387 29.692 53.8007 29.83C53.6474 29.9987 53.4557 30.083 53.2257 30.083C53.057 30.083 52.8577 30.037 52.6277 29.945C52.4744 29.9143 52.2904 29.807 52.0757 29.623C51.8764 29.4543 51.7767 29.232 51.7767 28.956C51.7767 28.772 51.815 28.5957 51.8917 28.427C51.9837 28.2583 52.0604 28.1433 52.1217 28.082C52.2444 27.99 52.3287 27.944 52.3747 27.944C52.4514 27.944 52.505 28.0437 52.5357 28.243V28.266C52.5357 28.3273 52.505 28.3887 52.4437 28.45C52.3824 28.5113 52.3594 28.6187 52.3747 28.772C52.4054 28.9867 52.4897 29.14 52.6277 29.232C52.7657 29.3393 52.8654 29.393 52.9267 29.393C53.126 29.393 53.2257 29.1937 53.2257 28.795C53.2257 28.473 53.1337 28.082 52.9497 27.622C52.7964 27.2387 52.5817 26.909 52.3057 26.633C52.0297 26.357 51.7077 26.1883 51.3397 26.127C51.1557 26.0963 50.9564 26.1423 50.7417 26.265C50.5117 26.3877 50.3124 26.6253 50.1437 26.978C50.0364 27.1773 49.9674 27.3997 49.9367 27.645C49.8907 27.8903 49.8677 28.1433 49.8677 28.404C49.8677 28.6953 49.8907 28.9713 49.9367 29.232C49.9674 30.0753 50.1897 30.6887 50.6037 31.072C51.0024 31.4707 51.5314 31.67 52.1907 31.67C52.2827 31.67 52.3747 31.6623 52.4667 31.647C52.574 31.647 52.6814 31.6393 52.7887 31.624C53.2487 31.5627 53.6934 31.3327 54.1227 30.934C54.552 30.5353 54.9124 30.0753 55.2037 29.554C55.449 29.1093 55.6024 28.7413 55.6637 28.45C55.7404 28.1587 55.7787 27.806 55.7787 27.392C55.7787 27.1313 55.771 26.84 55.7557 26.518C55.7557 26.196 55.7557 25.7973 55.7557 25.322C55.7557 25.0153 55.7557 24.6703 55.7557 24.287C55.771 23.9037 55.7864 23.4743 55.8017 22.999C54.989 23.4283 54.322 23.643 53.8007 23.643C53.3867 23.643 53.0034 23.5127 52.6507 23.252C52.528 23.16 52.436 23.045 52.3747 22.907C52.3287 22.7537 52.3057 22.5927 52.3057 22.424C52.3057 22.056 52.3977 21.6497 52.5817 21.205C52.7657 20.745 52.9804 20.3233 53.2257 19.94C53.471 19.5413 53.6857 19.25 53.8697 19.066C53.977 18.882 54.0997 18.79 54.2377 18.79C54.3604 18.79 54.46 18.8667 54.5367 19.02C54.6134 19.158 54.6134 19.2577 54.5367 19.319C54.3374 19.4877 54.1687 19.6947 54.0307 19.94C53.8927 20.1853 53.7624 20.4383 53.6397 20.699C53.5324 20.9597 53.4787 21.297 53.4787 21.711C53.4787 21.8643 53.4864 22.0177 53.5017 22.171C53.5324 22.3243 53.5784 22.4393 53.6397 22.516C53.7164 22.608 53.8544 22.654 54.0537 22.654C54.2377 22.654 54.4447 22.6157 54.6747 22.539C54.9047 22.447 55.0964 22.332 55.2497 22.194C55.6177 21.8567 55.8784 21.504 56.0317 21.136C56.2004 20.7527 56.3307 20.3847 56.4227 20.032C56.4687 19.848 56.5224 19.6333 56.5837 19.388C56.645 19.1273 56.6757 18.8667 56.6757 18.606C56.6757 18.514 56.7754 18.3913 56.9747 18.238C57.174 18.0693 57.381 17.985 57.5957 17.985C57.7644 17.985 57.9024 18.054 58.0097 18.192ZM77.8591 25.253C77.8591 25.529 77.7977 25.828 77.6751 26.15C77.5524 26.472 77.3837 26.7403 77.1691 26.955C76.9697 27.185 76.7244 27.3 76.4331 27.3C76.0957 27.3 75.7967 27.1467 75.5361 26.84C75.2907 26.5333 75.0837 26.1807 74.9151 25.782C74.7464 25.3987 74.6161 25.069 74.5241 24.793C74.3707 24.3023 74.2557 23.7197 74.1791 23.045C74.1024 22.3703 74.0181 21.6957 73.9261 21.021C73.8494 20.331 73.7267 19.733 73.5581 19.227L73.5351 17.456C73.2437 17.4867 72.9601 17.525 72.6841 17.571C72.4081 17.617 72.1704 17.6553 71.9711 17.686C71.4957 17.7627 71.0434 17.8547 70.6141 17.962C70.1847 18.0693 69.7554 18.1843 69.3261 18.307C69.0501 19.0123 68.7817 19.7177 68.5211 20.423C68.2757 21.1283 67.9001 21.8567 67.3941 22.608C67.0567 23.114 66.6197 23.5893 66.0831 24.034C65.5464 24.4787 64.9331 24.839 64.2431 25.115C63.5684 25.391 62.8401 25.529 62.0581 25.529C61.2147 25.529 60.5247 25.3297 59.9881 24.931C59.4667 24.5323 59.0834 23.988 58.8381 23.298C58.5927 22.608 58.4701 21.826 58.4701 20.952C58.4701 20.768 58.5007 20.5457 58.5621 20.285C58.6234 20.0243 58.7001 19.779 58.7921 19.549C58.8841 19.319 58.9684 19.158 59.0451 19.066C59.1984 18.836 59.3977 18.5677 59.6431 18.261C59.8884 17.9543 60.1491 17.6783 60.4251 17.433C60.7164 17.1723 61.0077 16.996 61.2991 16.904C61.4831 16.8427 61.7054 16.7507 61.9661 16.628C62.2421 16.5053 62.5487 16.444 62.8861 16.444C63.2694 16.444 63.6297 16.5513 63.9671 16.766C64.6877 17.2107 65.2474 17.755 65.6461 18.399C66.0601 19.043 66.2671 19.7713 66.2671 20.584C66.2671 21.32 66.0831 21.826 65.7151 22.102C65.3471 22.378 64.8181 22.5543 64.1281 22.631C63.9747 22.6463 63.8521 22.6003 63.7601 22.493C63.6681 22.3857 63.6221 22.2783 63.6221 22.171C63.6221 22.0483 63.6527 21.9487 63.7141 21.872C63.7907 21.78 63.9057 21.7263 64.0591 21.711C64.4424 21.6803 64.7951 21.6037 65.1171 21.481C65.4391 21.3583 65.6001 21.0823 65.6001 20.653C65.6001 20.009 65.4314 19.3497 65.0941 18.675C64.7567 18.0003 64.2967 17.479 63.7141 17.111C63.4841 16.973 63.2541 16.904 63.0241 16.904C62.7327 16.904 62.4567 16.9653 62.1961 17.088C61.9507 17.2107 61.7667 17.295 61.6441 17.341C61.3067 17.433 60.9924 17.686 60.7011 18.1C60.4097 18.514 60.1721 18.974 59.9881 19.48C59.8041 19.9707 59.7121 20.4153 59.7121 20.814C59.7121 21.8413 59.9497 22.677 60.4251 23.321C60.9157 23.965 61.5827 24.333 62.4261 24.425C62.5334 24.4403 62.6331 24.4557 62.7251 24.471C62.8324 24.471 62.9397 24.471 63.0471 24.471C63.9057 24.471 64.6647 24.2793 65.3241 23.896C65.9987 23.4973 66.5277 23.0067 66.9111 22.424C67.3711 21.7493 67.7084 21.09 67.9231 20.446C68.1531 19.802 68.3831 19.158 68.6131 18.514C68.3677 18.5753 68.1224 18.6443 67.8771 18.721C67.6317 18.7823 67.3787 18.8437 67.1181 18.905C66.9494 18.9357 66.8114 18.905 66.7041 18.813C66.6121 18.7057 66.5661 18.583 66.5661 18.445C66.5661 18.1997 66.6887 18.0463 66.9341 17.985C67.2867 17.9083 67.6317 17.8393 67.9691 17.778C68.3064 17.7013 68.6437 17.6323 68.9811 17.571C69.0117 17.4943 69.0424 17.4253 69.0731 17.364C69.1037 17.3027 69.1344 17.2413 69.1651 17.18C69.3644 16.7813 69.4947 16.3673 69.5561 15.938C69.6327 15.5087 69.7171 15.087 69.8091 14.673C69.9011 14.259 70.0774 13.8833 70.3381 13.546C70.4147 13.4387 70.5144 13.2777 70.6371 13.063C70.7597 12.833 70.8824 12.603 71.0051 12.373C71.1431 12.143 71.2427 11.9743 71.3041 11.867C71.4421 11.637 71.5494 11.3917 71.6261 11.131C71.7181 10.8703 71.8484 10.648 72.0171 10.464C72.1857 10.28 72.4464 10.188 72.7991 10.188C73.1211 10.188 73.3741 10.3567 73.5581 10.694C73.7574 11.0313 73.9107 11.4377 74.0181 11.913C74.1407 12.3883 74.2327 12.856 74.2941 13.316C74.3707 13.776 74.4474 14.121 74.5241 14.351L74.5471 16.053L74.7081 16.559V16.697C74.9534 16.6663 75.1221 16.6433 75.2141 16.628C75.4594 16.582 75.5821 16.6203 75.5821 16.743C75.5821 16.8197 75.5284 16.9117 75.4211 17.019C75.3137 17.1263 75.1681 17.1953 74.9841 17.226C74.9227 17.2413 74.8307 17.2643 74.7081 17.295L74.7311 18.261C74.8537 18.629 74.9227 19.1043 74.9381 19.687C74.9534 20.2697 74.9611 20.8677 74.9611 21.481C74.9611 22.0943 74.9687 22.6923 74.9841 23.275C75.0147 23.8423 75.0837 24.3023 75.1911 24.655C75.2677 24.8543 75.3444 25.1073 75.4211 25.414C75.4977 25.736 75.6051 26.0197 75.7431 26.265C75.8811 26.5103 76.0651 26.633 76.2951 26.633C76.5711 26.633 76.7857 26.541 76.9391 26.357C77.1077 26.173 77.1921 25.943 77.1921 25.667C77.1921 25.4523 77.2457 25.276 77.3531 25.138C77.4604 25.0153 77.5677 24.954 77.6751 24.954C77.7977 24.954 77.8591 25.0537 77.8591 25.253ZM73.5121 16.766L73.3281 16.214L73.2591 14.351C73.1824 13.9523 73.0981 13.5613 73.0061 13.178C72.9141 12.7793 72.8067 12.4573 72.6841 12.212C72.5767 11.9513 72.4464 11.821 72.2931 11.821C72.1704 11.821 72.0324 11.9207 71.8791 12.12C71.8024 12.2273 71.7104 12.396 71.6031 12.626C71.4957 12.856 71.3884 13.086 71.2811 13.316C71.1891 13.5307 71.1047 13.6917 71.0281 13.799C70.7827 14.121 70.6064 14.4813 70.4991 14.88C70.3917 15.2787 70.2921 15.685 70.2001 16.099C70.1081 16.513 69.9624 16.9117 69.7631 17.295L69.6941 17.433C70.0467 17.3717 70.3994 17.3103 70.7521 17.249C71.1047 17.1877 71.4651 17.1263 71.8331 17.065C72.0324 17.0343 72.2777 17.0037 72.5691 16.973C72.8757 16.927 73.1901 16.881 73.5121 16.835V16.766ZM81.9144 23.758C81.9758 23.6967 82.0601 23.666 82.1674 23.666C82.2748 23.666 82.3284 23.712 82.3284 23.804C82.3284 23.9113 82.2058 24.08 81.9604 24.31C81.7151 24.54 81.4468 24.724 81.1554 24.862C80.8641 25 80.5881 25.0997 80.3274 25.161C80.2048 25.1763 80.0361 25.1303 79.8214 25.023C79.6221 24.931 79.4994 24.8313 79.4534 24.724C79.3921 24.586 79.3461 24.4327 79.3154 24.264C79.2848 24.08 79.2694 23.8883 79.2694 23.689C79.2694 23.2137 79.3231 22.723 79.4304 22.217C79.5378 21.711 79.6374 21.274 79.7294 20.906C79.5454 20.9673 79.3384 20.998 79.1084 20.998C78.8938 20.998 78.7021 21.0133 78.5334 21.044C78.4261 21.1973 78.3341 21.3737 78.2574 21.573C78.1808 21.757 78.0734 21.964 77.9354 22.194C77.6901 22.5927 77.4141 22.9913 77.1074 23.39C76.8161 23.7733 76.5171 24.0877 76.2104 24.333C75.9038 24.5783 75.6048 24.701 75.3134 24.701C75.1141 24.701 75.0144 24.6473 75.0144 24.54C75.0144 24.4327 75.1448 24.333 75.4054 24.241C75.7734 24.103 76.1491 23.8117 76.5324 23.367C76.9158 22.9223 77.2608 22.4623 77.5674 21.987C77.7208 21.757 77.8204 21.55 77.8664 21.366C77.9124 21.1667 77.9354 21.0133 77.9354 20.906C77.9354 20.906 77.8664 20.8293 77.7284 20.676C77.6058 20.5073 77.5444 20.3463 77.5444 20.193C77.5444 19.8557 77.6518 19.549 77.8664 19.273C78.0964 18.997 78.3341 18.8973 78.5794 18.974C78.7481 19.02 78.8554 19.0967 78.9014 19.204C78.9628 19.3113 78.9934 19.4263 78.9934 19.549C78.9934 19.687 78.9704 19.8327 78.9244 19.986C78.8784 20.124 78.8324 20.2467 78.7864 20.354C78.8324 20.4153 78.9321 20.446 79.0854 20.446C79.3154 20.446 79.5684 20.4 79.8444 20.308C80.0438 20.0167 80.2354 19.7867 80.4194 19.618C80.6034 19.4493 80.7721 19.3803 80.9254 19.411C81.0328 19.4263 81.1324 19.4647 81.2244 19.526C81.3164 19.5873 81.3624 19.7023 81.3624 19.871C81.3624 20.009 81.2934 20.216 81.1554 20.492C80.9254 20.906 80.7108 21.3583 80.5114 21.849C80.3121 22.3243 80.1588 22.7613 80.0514 23.16C79.9441 23.5433 79.8981 23.8117 79.9134 23.965C79.9441 24.1643 79.9978 24.2947 80.0744 24.356C80.1664 24.4173 80.2661 24.448 80.3734 24.448C80.4501 24.448 80.5268 24.4403 80.6034 24.425C80.6954 24.3943 80.7798 24.3713 80.8564 24.356C81.0864 24.2793 81.2781 24.195 81.4314 24.103C81.5848 24.011 81.7458 23.896 81.9144 23.758ZM78.4874 19.871C78.4874 19.733 78.4414 19.6333 78.3494 19.572C78.3341 19.5567 78.3111 19.549 78.2804 19.549C78.2038 19.549 78.1348 19.6027 78.0734 19.71C78.0121 19.802 77.9814 19.894 77.9814 19.986C77.9814 20.0627 77.9891 20.1547 78.0044 20.262C78.0351 20.354 78.0888 20.377 78.1654 20.331C78.2421 20.285 78.3111 20.2237 78.3724 20.147C78.4491 20.0703 78.4874 19.9783 78.4874 19.871ZM88.6989 15.915C88.6989 15.915 88.6989 15.9687 88.6989 16.076C88.7142 16.1833 88.6836 16.3137 88.6069 16.467C88.5302 16.6203 88.3616 16.7737 88.1009 16.927C88.0089 16.9883 87.8402 17.0343 87.5949 17.065C87.3496 17.0957 87.0736 17.1187 86.7669 17.134C86.5982 17.5787 86.4142 18.031 86.2149 18.491C86.0156 18.9357 85.8086 19.3573 85.5939 19.756C85.2719 20.3693 84.9959 20.8217 84.7659 21.113C84.5512 21.4043 84.3826 21.6267 84.2599 21.78C84.1372 21.918 84.0529 22.0867 84.0069 22.286C83.9916 22.378 83.9762 22.4623 83.9609 22.539C83.9609 22.6157 83.9609 22.6923 83.9609 22.769C83.9609 23.3363 84.1219 23.7503 84.4439 24.011C84.7812 24.2717 85.1032 24.402 85.4099 24.402C85.7626 24.402 86.1152 24.2793 86.4679 24.034C86.8206 23.7733 87.1119 23.5357 87.3419 23.321C87.5259 23.1677 87.6639 23.091 87.7559 23.091C87.8172 23.091 87.8479 23.1217 87.8479 23.183C87.8479 23.2903 87.7636 23.459 87.5949 23.689C87.5029 23.8117 87.3496 23.9803 87.1349 24.195C86.9202 24.4097 86.6519 24.609 86.3299 24.793C86.0079 24.9617 85.6476 25.046 85.2489 25.046C84.4516 25.046 83.9149 24.862 83.6389 24.494C83.3782 24.126 83.2479 23.5127 83.2479 22.654C83.2479 21.9793 83.3169 21.1513 83.4549 20.17C83.5929 19.1733 83.8076 18.123 84.0989 17.019C84.0222 17.019 83.9456 17.019 83.8689 17.019C83.7922 17.0037 83.7232 16.996 83.6619 16.996C83.4626 16.996 83.3092 17.0267 83.2019 17.088C83.1099 17.134 83.0332 17.157 82.9719 17.157C82.8186 17.157 82.7419 17.042 82.7419 16.812C82.7419 16.5513 82.8109 16.352 82.9489 16.214C83.0562 16.1067 83.2402 16.053 83.5009 16.053C83.7002 16.053 83.9686 16.0913 84.3059 16.168C84.3366 16.076 84.3672 15.9917 84.3979 15.915C84.4286 15.8383 84.4516 15.7617 84.4669 15.685C84.4976 15.5317 84.5282 15.409 84.5589 15.317C84.5896 15.225 84.6279 15.11 84.6739 14.972C84.9346 14.19 85.2182 13.4387 85.5249 12.718C85.8316 11.9973 86.2762 11.3533 86.8589 10.786C86.9662 10.6173 87.1119 10.533 87.2959 10.533C87.4339 10.533 87.5566 10.5943 87.6639 10.717C87.7712 10.8243 87.8172 10.9547 87.8019 11.108C87.8019 11.108 87.7942 11.2997 87.7789 11.683C87.7636 12.0663 87.7329 12.534 87.6869 13.086C87.6409 13.6227 87.5719 14.1363 87.4799 14.627C87.4339 14.9183 87.3649 15.2327 87.2729 15.57C87.1962 15.892 87.0966 16.2217 86.9739 16.559C87.0659 16.5743 87.1502 16.5897 87.2269 16.605C87.3189 16.605 87.4032 16.605 87.4799 16.605C87.7099 16.605 87.8862 16.5743 88.0089 16.513C88.1469 16.4363 88.2236 16.3597 88.2389 16.283C88.2696 16.2063 88.2849 16.168 88.2849 16.168C88.2849 15.8613 88.3616 15.708 88.5149 15.708C88.5916 15.708 88.6529 15.777 88.6989 15.915ZM87.0659 12.074C86.9739 12.0587 86.8282 12.235 86.6289 12.603C86.4296 12.971 86.2149 13.454 85.9849 14.052C85.7549 14.65 85.5326 15.2863 85.3179 15.961C85.3026 16.0223 85.2872 16.0837 85.2719 16.145C85.2566 16.191 85.2412 16.2447 85.2259 16.306C85.3332 16.3367 85.4406 16.3597 85.5479 16.375C85.6552 16.3903 85.7702 16.4133 85.8929 16.444C85.9542 16.4593 86.0232 16.467 86.0999 16.467C86.1766 16.467 86.2456 16.4823 86.3069 16.513C86.3682 16.3443 86.4219 16.1987 86.4679 16.076C86.5139 15.938 86.5599 15.8153 86.6059 15.708C86.7746 15.1407 86.9126 14.558 87.0199 13.96C87.1272 13.362 87.1809 12.8943 87.1809 12.557C87.1809 12.281 87.1426 12.12 87.0659 12.074ZM86.0539 17.134H85.6399C85.5326 17.134 85.4252 17.134 85.3179 17.134C85.2259 17.134 85.1339 17.1263 85.0419 17.111C84.9039 17.6937 84.7659 18.3223 84.6279 18.997C84.5052 19.6563 84.4056 20.2467 84.3289 20.768C84.5129 20.5533 84.7046 20.2467 84.9039 19.848C85.1032 19.4493 85.3026 19.0123 85.5019 18.537C85.7012 18.0463 85.8852 17.5787 86.0539 17.134Z" fill="white"/>
</svg>
